<svg width="737" height="737" viewBox="0 0 737 737" fill="none" xmlns="http://www.w3.org/2000/svg">
<path fill-rule="evenodd" clip-rule="evenodd" d="M569.791 26.5839C569.791 22.6042 571.372 18.7874 574.186 15.9732C577 13.1591 580.817 11.5781 584.797 11.5781H599.803C603.782 11.5781 607.599 13.1591 610.413 15.9732C613.227 18.7874 614.808 22.6042 614.808 26.5839V56.5956H644.82C648.8 56.5956 652.617 58.1765 655.431 60.9907C658.245 63.8048 659.826 67.6216 659.826 71.6014V86.6072C659.826 90.587 658.245 94.4038 655.431 97.2179C652.617 100.032 648.8 101.613 644.82 101.613H614.808V131.625C614.808 135.604 613.227 139.421 610.413 142.235C607.599 145.05 603.782 146.63 599.803 146.63H584.797C580.817 146.63 577 145.05 574.186 142.235C571.372 139.421 569.791 135.604 569.791 131.625V101.613H539.779C535.799 101.613 531.983 100.032 529.169 97.2179C526.354 94.4038 524.773 90.587 524.773 86.6072V71.6014C524.773 67.6216 526.354 63.8048 529.169 60.9907C531.983 58.1765 535.799 56.5956 539.779 56.5956H569.791V26.5839Z" fill="url(#paint0_linear_986_97)"/>
<path d="M368.5 0C422.708 0 474.182 11.7047 520.532 32.7246C508.698 47.5623 501.623 66.3645 501.623 86.8193C501.623 134.768 540.493 173.639 588.442 173.639C616.513 173.639 641.472 160.316 657.342 139.649C707.213 202.51 737 282.026 737 368.5C737 572.017 572.017 737 368.5 737C164.983 737 0 572.017 0 368.5C0 332.7 5.10518 298.093 14.627 265.366H408.556C482.549 272.09 499.646 332.606 498.945 362.023C495.582 429.263 437.284 458.681 408.556 464.984H261.409V382.023C261.409 370.978 252.455 362.023 241.409 362.023H182.61C171.565 362.024 162.61 370.978 162.61 382.023V562.653C162.61 573.699 171.565 582.653 182.61 582.653H408.556C559.906 563.742 599.846 433.466 601.948 376.732C600.267 218.719 472.319 165.207 408.556 158.203H65.8613C132.431 62.582 243.157 0 368.5 0Z" fill="url(#paint1_linear_986_97)"/>
<defs>
<linearGradient id="paint0_linear_986_97" x1="592.3" y1="146.63" x2="592.3" y2="11.5781" gradientUnits="userSpaceOnUse">
<stop stop-color="#7CD295"/>
<stop offset="1" stop-color="#A9EEBF"/>
</linearGradient>
<linearGradient id="paint1_linear_986_97" x1="368.5" y1="0" x2="368.5" y2="737" gradientUnits="userSpaceOnUse">
<stop stop-color="#79D092"/>
<stop offset="1" stop-color="#ABEFC1"/>
</linearGradient>
</defs>
</svg>
